<svg width="535" height="520" viewBox="0 0 535 520" fill="none" xmlns="http://www.w3.org/2000/svg">
<path d="M24.875 469.307C24.4479 468.932 23.6927 468.74 23.0781 468.412C24.8281 468.13 25.6302 468.224 24.875 469.307Z" fill="#F9A319"/>
<mask id="mask0_5_4217" style="mask-type:luminance" maskUnits="userSpaceOnUse" x="0" y="464" width="24" height="8">
<path d="M0.801758 464.333H23.333V471H0.801758V464.333Z" fill="white"/>
</mask>
<g mask="url(#mask0_5_4217)">
<path d="M0.801758 464.781C7.03613 464.734 16.9424 464.922 23.0778 468.411C17.557 469.354 2.55176 474.589 0.801758 464.781Z" fill="#F9A319"/>
</g>
<path d="M25.7708 485.203L18.0312 482.135C22.6094 479.588 21.7135 484.161 25.7708 485.203Z" fill="#F9A319"/>
<path d="M23.0781 476.005L23.5521 472.422L27.6094 476.005H23.0781Z" fill="#F9A319"/>
<path d="M420.448 446.432C419.645 444.875 419.218 443.13 419.599 440.964L420.448 446.432Z" fill="#F9A319"/>
<path d="M435.927 462.938C437.244 463.552 438.192 463.786 438.994 463.979C438.192 464.26 437.338 463.839 435.927 462.938Z" fill="#F9A319"/>
<path d="M404.114 447.656L407.281 447.188C406.239 447.708 405.156 447.943 404.114 447.656Z" fill="#F9A319"/>
<path d="M204.349 458.318C201.422 455.677 198.641 453.271 196.516 451.62C202.365 448.932 202.792 454.828 204.349 458.318Z" fill="#F9A319"/>
<path d="M523.042 451.339L520.12 449.12C521.438 448.083 522.667 447.708 523.042 451.339Z" fill="#F9A319"/>
<path d="M451.214 511.281C450.651 509.583 450.604 508.359 450.932 507.464C451.5 507.698 451.969 507.938 452.583 508.172L451.214 511.281Z" fill="#F9A319"/>
<path d="M391.328 453.318C391.141 453.651 388.589 451.807 388.589 451.807C390.006 451.292 390.854 451.807 391.328 453.318Z" fill="#F9A319"/>
<path d="M526.583 412.901C528.187 411.766 530.218 410.682 532.859 409.693C531.583 412.146 528.802 413.323 526.583 412.901Z" fill="#F9A319"/>
<path d="M415.823 507.557C417.188 508.078 418.464 508.453 419.927 509.115C418.136 509.776 416.719 508.927 415.823 507.557Z" fill="#F9A319"/>
<path d="M204.349 458.318C205.151 459.073 205.953 459.781 206.802 460.537C205.672 460.49 204.916 459.594 204.349 458.318Z" fill="#F9A319"/>
<path d="M45.875 463.177C48.375 463.13 48.9427 465.203 49.3646 467.281C48 466.333 46.8177 465.016 45.875 463.177Z" fill="#F9A319"/>
<path d="M459.614 6.15108L459.661 5.1615C459.854 5.58858 459.76 5.91671 459.614 6.15108Z" fill="#F9A319"/>
<path d="M452.917 102.323C452.255 102.792 451.547 103.266 450.604 103.641C449.849 102.839 451.167 102.323 452.917 102.323Z" fill="#F9A319"/>
<mask id="mask1_5_4217" style="mask-type:luminance" maskUnits="userSpaceOnUse" x="36" y="0" width="499" height="520">
<path d="M36.667 0.208374H534.802V519.87H36.667V0.208374Z" fill="white"/>
</mask>
<g mask="url(#mask1_5_4217)">
<path d="M523.99 235.229L524.979 235.656L527.953 230.136L526.865 229.714L523.99 235.229ZM511.719 126.797C506.432 120.104 517.24 121.141 518.135 117.083C522.901 122.412 513.135 121.703 511.719 126.797ZM508.745 278.339C506.005 271.547 500.625 281.735 497.938 277.255L498.552 280.839C492.745 275.083 504.594 276.641 502.938 272.583L504.026 275.271C509.219 277.396 507.516 271.073 511.625 270.511C513.745 273.667 509.828 281.073 508.745 278.339ZM508.365 133.214C504.12 129.203 505.63 128.735 507.094 126C509.167 126.849 509.828 130.432 508.365 133.214ZM503.74 244.802C499.635 245.323 499.448 238.531 501.479 237.115C496.099 237.589 496.802 242.115 496.286 245.75C495.859 246.219 495.578 246.974 495.625 248.151C495.953 247.448 496.146 246.646 496.286 245.75C497.51 244.38 500.297 245.323 502.182 245.276L503.786 247.068L505.156 242.068L503.74 244.802ZM491.615 308.333L498.693 304.516L498.031 298.62L491.615 308.333ZM492.13 419.219C492.036 422 492.984 423.37 488.12 422.802C486.094 424.219 488.734 426.86 486.703 428.182C482.365 422.094 490.151 422.568 492.13 419.219C492.177 418.464 492.276 417.662 492.557 416.578C492.839 417.708 492.604 418.511 492.13 419.219ZM488.026 401.25C478.307 402.854 484.297 413.182 481.75 415.495C479.578 410.115 477.172 397.854 488.026 401.25ZM485.901 211.552C484.297 209.761 478.255 214.005 479.911 218.063L472.172 215.99C477.266 215.844 476.557 207.688 477.031 206.745C484.156 205.235 481.182 208.443 485.901 211.552ZM482.411 48.3178L480.948 51.0522C478.917 52.4689 476.844 51.5731 475.333 52.0887C475.755 48.8856 479.203 44.6876 482.411 48.3178ZM471.224 88.3595C471.979 89.4429 472.781 90.3908 473.823 90.8126L472.313 91.3335C469.62 90.1981 470.234 89.2085 471.224 88.3595C470.375 87.1356 469.667 85.7658 469.005 84.3022C463.818 83.4533 460.323 89.1616 457.396 90.7189C458.859 87.9845 463.958 85.5783 460.797 82.0418C459.24 82.5106 458.198 82.0887 458.297 84.3491L457.115 79.4012C464.286 73.5991 466.552 79.021 469.005 84.3022C470.141 84.4481 471.37 84.8699 472.688 85.8595C473.443 86.7085 472.172 87.4637 471.224 88.3595ZM464.479 58.2241C458.625 59.1668 450.698 58.8803 454.708 67.1356C460.891 67.4168 460.797 65.1564 468.063 68.172C469.526 65.4376 466.932 63.2241 466.365 61.8543C465.375 63.7397 468.016 65.9116 463.958 66.4741C461.599 63.3647 462.307 60.2033 464.479 58.2241C466.505 57.9376 468.396 57.4689 469.292 56.3335C467.401 56.3803 465.703 57.0887 464.479 58.2241ZM454.849 52.5626L455.464 56.1928L463.531 52.8439L454.849 52.5626ZM463.391 103.313C459.286 101.615 457.349 107.557 457.917 108.969L463.391 103.313ZM475.615 99.396L477.078 96.6147L467.922 99.6304L475.615 99.396ZM476.135 155.807L472.781 164.531C463.484 162.974 473.115 156.797 471.464 152.74C475.995 151.276 473.021 154.485 476.135 155.807ZM475.849 237.682C471.745 238.297 464.286 228.438 471.932 225.985C473.115 230.985 472.734 236.458 475.849 237.682ZM482.599 428.182L482.927 420.49L481.563 427.662L482.599 428.182ZM469.62 478.318C460.938 460.912 451.406 465.771 445.885 457.375C448.62 463.177 447.911 472.182 459.24 472.136C455.938 474.969 452.771 472.136 451.073 470.391C449.234 468.646 448.854 468.031 448.526 475.25C452.87 474.214 461.219 478.833 462.635 479.354L456.693 479.87C461.078 485.297 463.297 484.021 464.573 481.807C465.891 479.636 466.224 476.521 469.62 478.318ZM342.057 466.333L343.474 471.333L341.255 466.193L342.057 466.333L341.729 465.203L354 468.271L342.057 466.333ZM339.417 470.297L332.146 466.24L335.781 470.865L324.88 462.141C331.25 458.037 338.521 464.688 339.417 470.297ZM325.302 471.38C327.521 471.948 328.469 472.563 328.938 473.271C330.828 474.823 332.24 477.182 331.63 480.063C327.005 477.469 330.026 475.156 328.938 473.271C327.76 472.328 326.531 471.573 325.302 471.38ZM245.594 474.636C245.266 476.005 245.406 477.656 245.88 479.12C246.776 479.636 247.531 480.438 247.906 481.761C247.104 481.761 246.349 480.578 245.88 479.12C243.521 477.656 239.979 478.365 238.328 480.25C239.271 483.313 242.906 482.75 244.323 484.823C238.802 491.995 226.953 470.016 230.115 491.005C227.849 488.458 220.109 482.844 222.896 479.214C229.078 480.531 240.828 478.458 245.594 474.636C245.88 473.552 246.396 472.656 247.484 472.516C247.151 473.271 246.443 473.974 245.594 474.636ZM186.464 474.167L185.094 477.229L181.885 476.761L186.464 474.167ZM122.281 477.891L127.755 478.412L125.016 484.542L122.281 477.891ZM313.411 492.891C317.094 492.37 326.625 491.333 325.302 491.854C324.359 496.474 315.724 495.485 313.411 492.891ZM358.432 498.974L367.12 500.011C366.646 495.86 361.219 497.938 358.432 498.974ZM311.38 500.625L314.354 503.641C311.38 503.313 311.052 501.995 311.38 500.625L308.88 498.031C315.49 494.964 312.089 497.938 311.38 500.625ZM373.063 502.042L376.036 500.86C379.625 497.323 380.521 487.464 385.333 497.417L376.036 500.86C375.234 501.708 374.245 502.229 373.063 502.042ZM365.797 477.422C373.063 481.521 373.536 485.625 379.01 493.833C371.698 497.417 369.854 486.146 370.797 481.521C365.797 477.422 366.693 483.078 363.958 484.115L365.797 477.422ZM365.276 493.833C360.276 489.729 351.26 484.636 352.156 480.016C351.688 488.74 358.953 492.844 361.219 492.844C362.589 492.323 363.531 492.844 365.276 493.833ZM503.411 345.833L498.833 347.292L498.313 345.974L495.391 351.49C489.016 344.323 500.672 339.042 502.609 335.36C502.182 338.568 491.141 347.479 503.411 345.833ZM415.823 497.844C413.083 491.193 405.818 492.229 400.813 490.719C399.443 496.333 404.448 502.985 410.349 502.464C417.188 507.604 413.083 493.74 415.823 497.844ZM445.646 503.547L447.63 503.031L439.37 498.927L445.646 503.547ZM513.844 388.328C512.849 390.214 512.38 391.11 512.896 392.474C515.964 391.438 520.448 387.714 521.583 390.401C518.042 392.333 517.193 398.703 512.094 398.844C517.568 393.276 503.083 389.505 513.844 388.328ZM512.661 290.839C512.38 291.214 512.188 291.547 511.672 291.922C511.859 291.594 512.234 291.214 512.661 290.839C516.344 286.547 507.094 284.943 516.01 281.36C523.703 285.552 515.823 288.386 512.661 290.839ZM471.839 352.906L468.911 358.469L467.875 358.047L470.802 352.526L471.839 352.906ZM472.875 408.417L467.688 406.297L471.651 403.464L472.875 408.417ZM190.094 496.708C188.302 493.125 192.833 495.672 194.156 495.151L187.781 494.162C186.885 496.193 189.198 496.193 190.094 496.708ZM522.526 407.662L522.052 411.578C522.432 412.38 522.526 413.182 521.724 414.078L522.052 411.578C521.016 409.599 517.76 408.136 522.526 407.662ZM523.75 190.141C519.458 183.917 528 177.313 528.375 171.891L524.839 173.776L527.766 168.208L522.667 168.349C524.932 159.203 519.505 147.974 527.62 144.531L519.458 145.714L525.828 135.948L520.354 141.563C518.516 130.714 524.745 114.162 524.646 111.849L521.63 112.886C520.026 111.094 522.052 109.677 522.995 107.839L518.464 109.302C519.505 92.9376 509.167 88.5939 513.792 70.297C512.615 65.297 512.333 73.0314 509.734 73.172C506.099 70.4845 509.5 64.021 511.531 62.6564C504.354 64.1668 506.62 71.8543 500.865 66.0522C504.307 61.8543 494.255 68.9272 495.578 61.6199L504.734 58.6928C503.083 54.6356 497.557 57.9376 498.359 51.5262C502.328 44.1199 508.885 60.3908 510.115 48.5522C509.406 42.6564 488.734 36.3387 493.547 24.7814C488.688 14.9272 479.344 30.1616 481.516 16.4324L475.615 25.2553C472.974 23.0366 468.443 24.5001 470.281 18.5574C473.823 16.6251 478.354 12.896 478.776 9.68764C471.932 22.6147 468.203 -1.44257 459.333 10.5887L459.615 6.15118C459.286 6.71889 458.391 6.85951 457.682 6.57826L456.974 0.68243C455.036 4.31264 454.281 12.9897 447.49 9.07826L445.693 0.49493C440.646 2.8491 438.474 -0.260278 434.417 0.255346L424.833 25.5835C427.901 24.547 429.839 20.9168 432.953 22.2345C435.688 28.9324 427.479 27.7553 431.771 34.0262L435.781 31.1981C434.276 31.7137 433.802 32.6095 433.234 31.2449C430.594 29.0731 433.661 28.0366 436.208 27.9897C441.401 30.1616 437.953 36.5731 434.464 38.5053C435.172 46.6668 443.714 40.1095 445.318 41.9012C436.729 46.1928 445.693 55.5314 441.729 60.6772L447.297 57.3283C454.141 63.5053 448.62 69.1147 446.688 72.797L451.214 71.3335C450.458 80.0106 465.943 84.1616 449.703 90.9064L452.771 89.9637C454.234 93.5001 457.729 98.8804 452.917 102.323C454.849 102.417 457.208 102.979 457.823 104.396C451.5 106.422 456.313 110.057 457.495 115.292C459.099 111.802 467.26 112.792 469.198 109.115C477.646 117.13 460.182 116.61 460.37 123.401C464.573 127.458 464.901 119.724 467.922 118.735C463.63 129.25 486.99 140.052 470.755 146.844L465.516 142.412C462.021 146.61 462.068 148.87 463.63 148.354C463.063 147.031 464.62 146.563 466.13 146.042C474.672 158.589 454.38 165.901 457.776 178.537C460.844 177.594 461.786 175.755 464.38 175.662C467.641 181.464 448.667 181.511 455.036 190.896L458.578 189.011C460.75 192.12 455.651 194.526 454.615 194.104C468.49 194.198 454.141 214.146 472.266 220.516C464.714 225.229 458.906 238.578 463.156 242.589C471.51 248.297 472.219 237.354 479.958 239.427C480.099 243.953 472.5 246.453 475.24 253.198C467.547 253.391 459.474 239.948 455.229 252.776L459.38 254.521C458.813 253.198 457.255 251.406 458.198 249.521C462.729 245.797 463.391 251.693 465.469 252.495L463.297 266.219C455.083 267.302 456.927 259.094 454.849 258.292C456.693 269.094 468.818 282.016 463.484 292.156L466.552 291.167C459.708 304.089 481.609 298.526 468.583 308.901C470.755 314.276 477.219 306.875 477.974 314.985C478.021 317.297 474.906 315.974 473.87 315.599C471.083 325.646 481.703 319.938 474.245 329.229L482.927 327.156C477.031 338.24 461.974 349.979 465.844 359.464C472.5 358.802 471.839 352.906 476.891 350.547C464.948 363.563 475.661 381.49 469.339 393.469C463.63 389.979 456.172 399.266 451.359 391.677C460.042 389.599 454.281 386.11 455.182 382.005C436.396 388.797 464.667 409.552 448.339 411.719L455.036 413.417C454.047 415.255 449.047 419.927 446.922 416.766C448.432 422.333 449.849 422.568 451.313 424.833C453.813 424.219 458.01 423.182 460.609 420.49C463.203 417.047 464.286 413.844 460.656 412.38C467.734 408.557 465.422 417.708 473.536 414.313C462.495 423.276 478.307 419.641 475.943 427.849C471.083 425.443 467.828 427.094 465.188 428.37C462.542 429.735 460.51 430.964 458.198 430.115C459.995 432.427 455.557 434.453 452.255 433.604C451.828 434.5 453.578 437.281 454.99 440.677C456.453 443.979 457.635 447.849 455.938 448.318C459.005 449.922 463.016 450.349 469.198 455.724C466.458 455.771 465.943 457.375 469.385 462.141C469.953 463.037 470.896 464.261 472.266 465.818C472.927 466.146 473.49 466.479 474.01 466.761C484.677 465.203 456.641 448.037 464.854 446.386C473.068 449.735 475.047 447.708 477.406 442.708C482.125 447.708 484.156 447.469 489.865 451.573C482.505 451.953 481.182 454.969 481.37 459.828C481.609 464.542 483.401 471.287 482.271 475.11C480.193 474.682 477.833 473.88 475.188 472.61C466.552 467.422 459.615 456.479 451.828 454.5C452.396 452.75 452.724 451.005 452.724 449.214C451.5 453.979 447.203 444.073 442.672 442.094C444.328 443.979 446.073 445.865 448.005 447.755C446.354 448.839 444.563 447.802 441.161 443.698C443.333 446.62 445.74 449.547 448.339 452.469C447.536 453.505 444.938 454.594 442.484 449.453C443.146 451.526 443.76 453.224 444.469 454.735C443.474 453.271 442.344 452.328 440.646 452.563C442.109 453.599 442.672 453.037 443.807 455.63C435.406 453.458 445.365 465.016 439.417 464.12C440.88 466.099 439.797 468.599 437.531 469.636C436.302 462.797 432.859 458.886 430.12 455.771C429.083 454.214 427.005 452.802 424.927 451.339C423.042 449.875 421.391 448.318 420.448 446.432C420.495 446.62 410.49 441.011 410.49 441.011C412.516 442.141 410.25 445.818 407.281 447.188C404.542 449.214 411.339 461.995 401.802 457.943L396.802 453.839C397.698 454.307 396.802 456.386 396.281 457.422L391.141 453.651C383.021 466.24 376.224 446.245 366.786 452.328C369.526 451.292 373.583 452.328 371.792 456.432C369.901 457.99 367.214 456.432 365.844 454.401L366.266 455.912L348.573 447.235C349.938 451.854 359.896 452.375 355.365 457.469C352.63 463.646 347.625 456.995 344.417 456.479C344.891 452.896 350.839 449.781 344.891 447.802C344.135 449.547 338.422 453.177 341.068 455.771C334.979 452 326.156 449.641 320.776 443.224C319.026 444.735 321.719 446.292 322.615 446.761L323.089 445.771C326.719 447.802 323.51 454.969 330.781 451.386C331.203 463.177 320.302 454.5 313.932 456.005L323.938 464.214C306.661 480.11 283.917 462.235 267.021 461.761C272.073 458.177 276.13 461.714 275.703 452.516C265.276 447.896 266.646 449.969 256.167 447.943L257.063 448.412C251.589 453.083 244.323 443.839 240.688 452.047C242.906 457.188 248.427 447.422 248.38 457.656L235.214 456.667C239.271 462.797 248.38 457.656 253.38 459.214C257.063 458.693 246.115 457.656 247.953 451.005C260.271 451.526 262.964 458.177 268.906 467.891C272.448 475.063 263.385 475.063 261.073 475.063C253.427 464.354 242.057 459.214 229.74 463.839L222.943 471.526C216.995 464.401 219.781 450.537 208.833 452.141L211.995 457.75C209.589 459.922 207.984 460.63 206.802 460.537C211.474 464.828 216.432 469.682 220.63 474.12C214.214 485.912 202.839 467.985 193.776 465.485C194.203 466.995 197.411 467.516 198.307 470.578C184.62 473.177 170.557 458.839 160.083 456.807C155.552 461.948 168.766 460.391 166.5 468.031C160.979 465.016 154.656 471.667 153.24 464.495C155.505 474.729 140.542 465.063 150.974 474.729C130.964 478.88 109.161 469.167 89.0573 463.083C90 466.146 89.9531 468.693 89.0573 470.771C95.901 470.724 105.901 473.787 109.536 480.958C105.005 486.099 99.0625 473.833 97.7396 476.901C99.9583 479.448 104.536 479.448 104.536 484.542C98.5885 490.203 95.4271 482.042 91.3698 481.005L93.6354 478.412C80.9375 471.287 86.8385 460.537 73.151 463.13C68.151 469.261 73.151 468.224 73.1042 475.912C69.9427 472.844 59.4635 481.052 56.3021 472.844L64.5156 472.328C58.8073 470.063 53.3281 470.016 49.3646 467.281C49.7448 468.979 50.0729 470.677 51.3021 471.333C46.724 468.787 40.8698 469.307 38.6042 464.167L37.1927 472.375C39.974 468.787 48.1406 468.271 49.4583 472.844C48.5625 480.063 40.3542 475.438 36.7188 475.958C52.6719 478.505 52.6719 491.287 66.2604 486.146L63.9948 483.599C72.5365 477.516 81.0313 487.891 88.3958 487.75C86.2708 489.401 85.849 492.417 86.7448 493.787C103.167 487.656 119.12 492.75 137.76 489.115L143.188 497.323L143.656 491.146C152.766 488.552 145.5 499.87 151.349 499.349C149.13 499.349 149.51 498.313 149.13 496.755C159.563 503.927 155.078 491.146 160.932 493.172C158.24 486.521 149.557 490.625 152.344 481.901C162.771 489.068 179.193 485.438 180.469 500.344C200.099 494.636 224.172 504.302 240.594 505.86C242.859 503.266 239.224 503.787 240.12 501.755C246.49 510.432 261.969 496.052 261.969 503.74C265.182 501.708 266.547 496.052 267.448 494.021C271.552 497.75 276.505 499.636 281.792 500.766L277.969 498.599L278.396 497.557L283.823 500.672C296.755 503.5 312.042 501.896 323.844 510.292C317.047 505.198 325.729 501.094 322.521 498.031C328.422 510.292 343 510.813 354.802 509.729C354.802 507.182 355.745 505.151 354.375 503.078L361.172 508.219L360.323 505.104C372.594 503.031 385.76 516.849 393.922 511.188C388.969 509.682 388.969 507.136 388.542 503.031C397.323 503.453 405.625 503.74 415.823 507.557C415.255 506.802 414.922 505.953 414.922 505.011C417.661 504.021 420.823 507.089 423.563 508.594L424.031 502.464C425.448 503.172 426.438 503.547 428.469 503.74C430.781 503.88 433.094 504.021 435.5 504.162C440.359 504.396 445.318 504.917 450.932 507.464C452.016 504.115 458.057 505.766 465.99 507.938C473.823 510.104 483.734 512.792 488.875 511.474C494.161 513.031 474.719 504.208 486.99 504.729C492.51 511.474 496.802 511.615 501.052 511.896C505.297 512.182 509.5 512.604 516.578 519.87C518.703 518.406 520.682 516.943 522.526 515.479L521.724 513.031L528.943 517.417C522.099 505.719 523.563 503.74 526.208 501.287C528.849 499.021 532.625 496.193 530.359 486.708C528.849 486.521 528.328 487.891 527.292 486.38C528.755 482.464 529.557 470.865 533.333 482.323C533.193 473.599 536.208 444.688 528.755 455.537C532.813 456.005 529.464 466.901 528.047 471.052C521.818 467.328 524.13 456.292 517.427 451.198C518.089 451.052 519.125 449.922 520.12 449.12L516.297 446.386C519.646 440.349 520.026 432.943 520.682 426.151L521.25 421.104C521.484 419.693 521.818 419.078 522.24 418.042C523.089 416.198 524.411 414.5 526.583 412.901C524.698 412.568 523.188 411.104 523.609 408.136L531.302 407.948L531.021 398.844L519.88 403.229C517.568 393.276 530.172 386.11 532.01 377.901C519.125 375.922 536.682 361.818 525.214 354.839L521.771 361.302C523.99 347.578 516.203 345.5 520.495 332.672C524.885 343.474 522.339 343.568 533 359.224C527.479 343.427 539.984 331.776 532.339 317.344C529.323 318.333 527.385 322.011 524.224 318.474C530.781 315.599 523.797 304.844 531.583 306.922C528.896 302.438 521.677 301.735 520.589 298.995L529.932 283.761L528.375 284.235C510.255 258.719 539.891 236.172 532.01 210.469L527.906 210.99L533.896 204.479C529.932 209.573 528.708 202.354 525.12 201.979L533.849 185.375C530.266 185.047 522.099 186.083 523.75 190.141Z" fill="#F9A319"/>
</g>
<path d="M457.682 118.969C457.021 117.271 457.115 116.188 457.495 115.292C457.776 116.422 457.917 117.651 457.682 118.969Z" fill="#F9A319"/>
<path d="M455.604 428.604C456.974 429.078 457.729 429.547 458.198 430.115C457.349 429.828 456.5 429.359 455.604 428.604Z" fill="#F9A319"/>
<path d="M49.9795 456.479C47.2451 449.828 52.7191 455.443 54.9847 455.443C52.7191 455.443 51.7711 460.063 49.9795 456.479Z" fill="#F9A319"/>
<path d="M67.724 467.703C66.3542 465.771 64.4687 464.401 62.1562 463.786C63.6198 463.599 65.224 464.307 67.724 467.703Z" fill="#F9A319"/>
<path d="M53.1406 464.687C56.6354 463.365 59.7031 463.13 62.1563 463.786C59.8437 464.073 57.8594 466.526 53.1406 464.687Z" fill="#F9A319"/>
<path d="M115.953 466.62C113.172 462.516 107.744 464.589 107.744 464.589C119.588 460.958 105.526 456.901 104.583 453.839C111.896 455.349 111.849 460.49 115.953 466.62Z" fill="#F9A319"/>
<path d="M131.531 468.932C130.302 468.932 129.172 469.073 128.224 469.682C129.406 468.646 130.489 468.599 131.531 468.932Z" fill="#F9A319"/>
<path d="M135.964 465.062C140.073 466.052 141.438 470.677 143.234 474.26C138.229 477.469 135.208 470.109 131.531 468.932C134.406 468.88 137.24 469.401 135.964 465.062Z" fill="#F9A319"/>
<path d="M262.115 444.828C261.167 444.312 258.906 444.312 258.906 441.766H265.698C268.437 443.318 263.479 444.312 262.115 444.828Z" fill="#F9A319"/>
<path d="M287.125 457.61C292.552 458.083 289.818 451.432 292.552 452.99L292.13 461.714L287.125 457.61Z" fill="#F9A319"/>
<path d="M283.396 501.661L281.792 500.766C282.407 500.906 282.974 501 283.636 501.146L283.396 501.661Z" fill="#F9A319"/>
<path d="M313.552 449.354L309.922 439.641C314.448 442.187 314.401 449.875 313.552 449.354Z" fill="#F9A319"/>
<path d="M334.458 443.177L331.297 440.115L341.255 443.177H334.458Z" fill="#F9A319"/>
<path d="M359.474 448.271L360.416 446.198L367.213 448.745L359.474 448.271Z" fill="#F9A319"/>
<path d="M463.958 327.203C472.125 326.115 468.817 337.057 470.989 340.219C460.656 338.141 474.291 331.495 463.958 327.203Z" fill="#F9A319"/>
<path d="M461.552 128.448L459.76 138.922C456.453 130.854 459.708 136.656 461.552 128.448Z" fill="#F9A319"/>
</svg>
