<svg width="553" height="539" viewBox="0 0 553 539" fill="none" xmlns="http://www.w3.org/2000/svg">
<path d="M527.916 53.0417C528.354 53.4323 529.135 53.6302 529.77 53.9688C527.963 54.2604 527.135 54.1667 527.916 53.0417Z" fill="#F9A319"/>
<mask id="mask0_5_4216" style="mask-type:luminance" maskUnits="userSpaceOnUse" x="529" y="50" width="24" height="9">
<path d="M529.333 50.6667H552.797V58.6667H529.333V50.6667Z" fill="white"/>
</mask>
<g mask="url(#mask0_5_4216)">
<path d="M552.797 57.7292C546.354 57.776 536.109 57.5781 529.771 53.9687C535.479 52.9948 550.989 47.5781 552.797 57.7292Z" fill="#F9A319"/>
</g>
<path d="M526.989 36.599L534.989 39.7709C530.26 42.4063 531.182 37.6719 526.989 36.599Z" fill="#F9A319"/>
<path d="M529.771 46.1146L529.282 49.823L525.089 46.1146H529.771Z" fill="#F9A319"/>
<path d="M119.011 76.7084C119.839 78.3177 120.276 80.125 119.886 82.3698L119.011 76.7084Z" fill="#F9A319"/>
<path d="M103.011 59.6302C101.641 58.9948 100.667 58.75 99.8389 58.5573C100.667 58.2656 101.547 58.7031 103.011 59.6302Z" fill="#F9A319"/>
<path d="M135.891 75.4375L132.62 75.9271C133.693 75.3906 134.818 75.1458 135.891 75.4375Z" fill="#F9A319"/>
<path d="M342.391 64.4115C345.417 67.1459 348.292 69.6355 350.49 71.3386C344.437 74.1198 344 68.0209 342.391 64.4115Z" fill="#F9A319"/>
<path d="M12.9531 71.6354L15.9792 73.9271C14.6094 75 13.3437 75.3906 12.9531 71.6354Z" fill="#F9A319"/>
<path d="M87.2028 9.61462C87.7861 11.3698 87.8382 12.6407 87.4945 13.5677C86.9111 13.323 86.4215 13.0782 85.7861 12.8386L87.2028 9.61462Z" fill="#F9A319"/>
<path d="M149.109 69.5834C149.302 69.2448 151.938 71.1459 151.938 71.1459C150.474 71.6823 149.599 71.1459 149.109 69.5834Z" fill="#F9A319"/>
<path d="M9.2972 111.401C7.63574 112.573 5.53678 113.693 2.80762 114.719C4.12533 112.182 7.00033 110.964 9.2972 111.401Z" fill="#F9A319"/>
<path d="M123.792 13.4688C122.375 12.9324 121.057 12.5417 119.547 11.8594C121.401 11.1772 122.865 12.0574 123.792 13.4688Z" fill="#F9A319"/>
<path d="M342.391 64.4115C341.563 63.6302 340.735 62.9011 339.854 62.1198C341.026 62.1667 341.808 63.0938 342.391 64.4115Z" fill="#F9A319"/>
<path d="M506.208 59.3854C503.619 59.4323 503.036 57.2865 502.599 55.1406C504.01 56.1146 505.229 57.4844 506.208 59.3854Z" fill="#F9A319"/>
<path d="M78.5209 532.203L78.4688 533.229C78.2761 532.792 78.3698 532.448 78.5209 532.203Z" fill="#F9A319"/>
<path d="M85.4482 432.714C86.1305 432.224 86.8597 431.74 87.8389 431.349C88.6149 432.177 87.2503 432.714 85.4482 432.714Z" fill="#F9A319"/>
<mask id="mask1_5_4216" style="mask-type:luminance" maskUnits="userSpaceOnUse" x="0" y="0" width="516" height="539">
<path d="M0.796875 0.734375H516V538.354H0.796875V0.734375Z" fill="white"/>
</mask>
<g mask="url(#mask1_5_4216)">
<path d="M11.979 295.208L10.9529 294.771L7.88002 300.479L8.99982 300.917L11.979 295.208ZM24.6613 407.391C30.1248 414.318 18.9529 413.245 18.0259 417.443C13.0988 411.927 23.1977 412.656 24.6613 407.391ZM27.7342 250.609C30.5623 257.641 36.1248 247.099 38.9061 251.734L38.2707 248.026C44.2707 253.979 32.0259 252.37 33.7342 256.563L32.6144 253.781C27.2446 251.589 29.005 258.125 24.7602 258.714C22.5623 255.443 26.6144 247.781 27.7342 250.609ZM28.1248 400.755C32.5154 404.901 30.9529 405.391 29.4425 408.219C27.2967 407.339 26.6144 403.63 28.1248 400.755ZM32.9061 285.307C37.1509 284.766 37.3436 291.797 35.2446 293.26C40.8071 292.771 40.0779 288.089 40.6144 284.328C41.0519 283.839 41.3436 283.063 41.2967 281.839C40.9529 282.573 40.7602 283.401 40.6144 284.328C39.3436 285.745 36.4686 284.766 34.5154 284.818L32.8592 282.964L31.4425 288.135L32.9061 285.307ZM45.4425 219.578L38.1248 223.531L38.8071 229.63L45.4425 219.578ZM44.9061 104.865C45.005 101.984 44.0259 100.568 49.0519 101.156C51.1509 99.6927 48.4165 96.9583 50.5154 95.5938C55.005 101.885 46.9529 101.396 44.9061 104.865C44.8592 105.646 44.7602 106.474 44.4686 107.594C44.1769 106.422 44.4165 105.594 44.9061 104.865ZM49.1509 123.453C59.1977 121.797 53.005 111.109 55.6404 108.719C57.8852 114.281 60.3696 126.969 49.1509 123.453ZM51.3436 319.703C53.005 321.557 59.2498 317.167 57.5415 312.969L65.5415 315.12C60.2759 315.266 61.005 323.708 60.5154 324.682C53.1509 326.245 56.2238 322.927 51.3436 319.703ZM54.9582 488.583L56.4686 485.755C58.5675 484.286 60.7134 485.214 62.2759 484.677C61.8332 487.995 58.2707 492.339 54.9582 488.583ZM66.5154 447.156C65.7394 446.036 64.9061 445.057 63.8332 444.62L65.3957 444.083C68.1769 445.255 67.5415 446.276 66.5154 447.156C67.3957 448.427 68.13 449.839 68.8123 451.354C74.1769 452.229 77.7863 446.328 80.8123 444.719C79.2967 447.547 74.0311 450.036 77.2967 453.693C78.9113 453.208 79.9842 453.646 79.8852 451.302L81.104 456.427C73.6873 462.427 71.3488 456.818 68.8123 451.354C67.6404 451.208 66.3696 450.766 65.005 449.745C64.2238 448.865 65.5415 448.083 66.5154 447.156ZM73.4946 478.339C79.5415 477.359 87.7394 477.651 83.5936 469.115C77.2029 468.823 77.2967 471.161 69.7863 468.042C68.2759 470.87 70.9582 473.161 71.5415 474.578C72.5675 472.625 69.8332 470.38 74.0311 469.797C76.4686 473.016 75.7394 476.286 73.4946 478.339C71.3957 478.63 69.4425 479.115 68.5154 480.286C70.4686 480.24 72.2238 479.505 73.4946 478.339ZM83.4477 484.193L82.8123 480.432L74.4686 483.901L83.4477 484.193ZM74.6144 431.688C78.8592 433.443 80.8592 427.297 80.2759 425.833L74.6144 431.688ZM61.979 435.74L60.4686 438.62L69.9321 435.495L61.979 435.74ZM61.4425 377.38L64.9061 368.354C74.5207 369.964 64.5675 376.354 66.2759 380.552C61.5884 382.063 64.6613 378.745 61.4425 377.38ZM61.7394 292.672C65.979 292.036 73.6873 302.234 65.7863 304.776C64.5675 299.604 64.9582 293.943 61.7394 292.672ZM54.7602 95.5938L54.4217 103.547L55.8332 96.1302L54.7602 95.5938ZM68.1769 43.724C77.1509 61.7292 87.005 56.7031 92.7134 65.3854C89.8852 59.3854 90.6144 50.0677 78.9113 50.1146C82.3227 47.1875 85.5936 50.1146 87.3488 51.9219C89.2498 53.724 89.6404 54.3594 89.9842 46.8958C85.4946 47.9688 76.8592 43.1875 75.3957 42.651L81.5415 42.1146C77.005 36.5 74.7134 37.8177 73.3957 40.1146C72.0311 42.3594 71.6873 45.5781 68.1769 43.724ZM200.041 56.1146L198.578 50.9427L200.87 56.2656L200.041 56.1146L200.38 57.2865L187.698 54.1146L200.041 56.1146ZM202.771 52.0156L210.286 56.2135L206.526 51.4323L217.797 60.4583C211.213 64.7031 203.698 57.8229 202.771 52.0156ZM217.359 50.8958C215.062 50.3125 214.088 49.6771 213.599 48.9427C211.651 47.3333 210.187 44.8958 210.823 41.9167C215.599 44.599 212.479 46.9948 213.599 48.9427C214.823 49.9219 216.088 50.7031 217.359 50.8958ZM299.755 47.5313C300.094 46.1146 299.948 44.4063 299.463 42.8958C298.536 42.3594 297.755 41.526 297.364 40.1615C298.193 40.1615 298.974 41.3802 299.463 42.8958C301.901 44.4063 305.557 43.6719 307.265 41.724C306.291 38.5521 302.536 39.1354 301.073 36.9896C306.781 29.5729 319.026 52.3125 315.755 30.599C318.099 33.2344 326.099 39.0365 323.219 42.7969C316.828 41.4323 304.682 43.5781 299.755 47.5313C299.463 48.651 298.922 49.5781 297.802 49.724C298.146 48.9427 298.875 48.2135 299.755 47.5313ZM360.88 48.0156L362.297 44.8438L365.614 45.3333L360.88 48.0156ZM427.224 44.1615L421.568 43.625L424.396 37.2813L427.224 44.1615ZM229.651 28.6458C225.844 29.1823 215.989 30.2552 217.359 29.7188C218.333 24.9375 227.26 25.9635 229.651 28.6458ZM183.109 22.349L174.135 21.276C174.625 25.5729 180.234 23.4271 183.109 22.349ZM231.75 20.6406L228.677 17.5208C231.75 17.8594 232.088 19.2292 231.75 20.6406L234.333 23.3281C227.505 26.5 231.015 23.4271 231.75 20.6406ZM167.989 19.1771L164.916 20.401C161.208 24.0573 160.281 34.2552 155.302 23.9635L164.916 20.401C165.745 19.5208 166.771 18.9844 167.989 19.1771ZM175.5 44.651C167.989 40.4063 167.5 36.1615 161.844 27.6719C169.401 23.9635 171.307 35.625 170.328 40.4063C175.5 44.651 174.573 38.7969 177.406 37.7188L175.5 44.651ZM176.036 27.6719C181.208 31.9167 190.526 37.1823 189.599 41.9688C190.088 32.9375 182.573 28.6927 180.234 28.6927C178.818 29.2292 177.844 28.6927 176.036 27.6719ZM33.2446 180.786L37.979 179.276L38.5154 180.641L41.5415 174.932C48.1248 182.349 36.0779 187.813 34.0779 191.62C34.5154 188.302 45.9321 179.078 33.2446 180.786ZM123.791 23.5208C126.62 30.401 134.13 29.3281 139.302 30.8906C140.719 25.0833 135.547 18.2031 129.448 18.7396C122.375 13.4219 126.62 27.7656 123.791 23.5208ZM92.9582 17.6198L90.9113 18.1563L99.4477 22.401L92.9582 17.6198ZM22.4634 136.823C23.4894 134.87 23.979 133.943 23.4425 132.531C20.2707 133.604 15.6352 137.458 14.4634 134.677C18.1248 132.677 18.9998 126.089 24.2707 125.943C18.6144 131.698 33.5884 135.604 22.4634 136.823ZM23.6873 237.682C23.979 237.292 24.1717 236.948 24.7082 236.557C24.5154 236.901 24.1248 237.292 23.6873 237.682C19.88 242.12 29.4425 243.781 20.2238 247.49C12.2706 243.146 20.4165 240.219 23.6873 237.682ZM65.8852 173.469L68.9061 167.708L69.979 168.151L66.9582 173.859L65.8852 173.469ZM64.8123 116.036L70.1769 118.234L66.0779 121.161L64.8123 116.036ZM357.125 24.6927C358.979 28.401 354.291 25.7656 352.927 26.3021L359.515 27.3281C360.443 25.2292 358.052 25.2292 357.125 24.6927ZM13.4894 116.818L13.979 112.766C13.5884 111.938 13.4894 111.109 14.3175 110.182L13.979 112.766C15.0519 114.818 18.4165 116.328 13.4894 116.818ZM12.2186 341.859C16.6613 348.297 7.83315 355.13 7.44252 360.74L11.0988 358.792L8.07273 364.547L13.3436 364.401C10.9998 373.865 16.6092 385.479 8.21857 389.042L16.6613 387.823L10.0727 397.922L15.7342 392.115C17.6352 403.339 11.1977 420.464 11.2967 422.854L14.4165 421.781C16.0727 423.635 13.979 425.099 12.9998 427.005L17.6873 425.49C16.6092 442.422 27.2967 446.911 22.5154 465.844C23.7342 471.016 24.0259 463.016 26.7082 462.87C30.4686 465.651 26.9529 472.333 24.854 473.75C32.2707 472.188 29.9321 464.234 35.88 470.234C32.3227 474.578 42.7134 467.26 41.3436 474.823L31.88 477.849C33.5884 482.047 39.2967 478.63 38.4686 485.266C34.3696 492.927 27.5884 476.094 26.3175 488.339C27.0519 494.438 48.4165 500.979 43.4425 512.932C48.4686 523.13 58.1248 507.37 55.8852 521.568L61.979 512.443C64.7134 514.734 69.3957 513.224 67.4946 519.37C63.8332 521.375 59.1509 525.229 58.7134 528.547C65.7863 515.177 69.6404 540.063 78.8123 527.62L78.5207 532.203C78.8592 531.62 79.7863 531.474 80.5207 531.766L81.2498 537.865C83.2498 534.109 84.0311 525.13 91.0571 529.182L92.9113 538.063C98.13 535.62 100.375 538.844 104.568 538.302L114.474 512.104C111.302 513.177 109.302 516.932 106.083 515.568C103.25 508.635 111.739 509.859 107.302 503.37L103.156 506.297C104.713 505.76 105.203 504.833 105.786 506.245C108.521 508.49 105.349 509.563 102.713 509.615C97.3488 507.37 100.911 500.734 104.521 498.734C103.786 490.292 94.9582 497.073 93.3019 495.219C102.177 490.776 92.9113 481.12 97.005 475.797L91.2498 479.266C84.1769 472.87 89.8852 467.063 91.8852 463.26L87.2029 464.771C87.9842 455.792 71.979 451.5 88.7654 444.521L85.5936 445.495C84.0779 441.839 80.4686 436.276 85.4477 432.714C83.4477 432.615 81.005 432.031 80.3748 430.568C86.9113 428.469 81.9321 424.708 80.7134 419.297C79.0571 422.906 70.6144 421.88 68.6144 425.688C59.8852 417.391 77.9321 417.927 77.7394 410.901C73.3957 406.703 73.0571 414.708 69.9321 415.734C74.3696 404.849 50.2238 393.677 67.005 386.651L72.4217 391.24C76.0311 386.896 75.9842 384.552 74.3696 385.089C74.9582 386.458 73.3488 386.943 71.7863 387.479C62.9582 374.5 83.9321 366.938 80.4217 353.859C77.2498 354.839 76.2759 356.74 73.5936 356.839C70.2238 350.833 89.8384 350.786 83.2498 341.078L79.5936 343.031C77.3488 339.807 82.6144 337.318 83.6873 337.76C69.3488 337.661 84.1769 317.021 65.4425 310.432C73.2498 305.552 79.2498 291.745 74.8592 287.599C66.2238 281.693 65.4946 293.016 57.4946 290.87C57.3488 286.182 65.2029 283.599 62.3696 276.62C70.3227 276.422 78.6665 290.328 83.0571 277.057L78.7602 275.255C79.3488 276.62 80.9582 278.474 79.9842 280.427C75.2967 284.281 74.6144 278.182 72.4686 277.349L74.7134 263.151C83.2029 262.031 81.2967 270.521 83.4477 271.349C81.5415 260.177 69.005 246.807 74.5207 236.313L71.3488 237.339C78.4217 223.969 55.7863 229.729 69.2498 218.995C67.005 213.432 60.3227 221.094 59.5415 212.698C59.4946 210.307 62.7134 211.672 63.7863 212.063C66.6665 201.672 55.6873 207.573 63.3957 197.964L54.4217 200.109C60.5154 188.641 76.0779 176.495 72.0779 166.688C65.2029 167.37 65.8852 173.469 60.6613 175.906C73.005 162.443 61.9321 143.896 68.4686 131.505C74.3696 135.115 82.0779 125.505 87.0571 133.359C78.0779 135.505 84.0311 139.115 83.104 143.359C102.521 136.333 73.2967 114.865 90.1769 112.62L83.2498 110.865C84.2759 108.964 89.4477 104.13 91.6404 107.401C90.0779 101.641 88.6144 101.396 87.104 99.0573C84.5207 99.6927 80.1769 100.766 77.4946 103.547C74.8123 107.109 73.6873 110.427 77.4477 111.938C70.13 115.891 72.5207 106.422 64.1248 109.938C75.5415 100.667 59.1977 104.422 61.6404 95.9323C66.6665 98.4219 70.0311 96.7135 72.7602 95.3958C75.4946 93.9792 77.5936 92.7135 79.9842 93.5885C78.13 91.1979 82.7134 89.1042 86.13 89.9792C86.5675 89.0521 84.7654 86.1719 83.3019 82.6615C81.7863 79.2448 80.5675 75.2448 82.3227 74.7552C79.1509 73.099 75.005 72.6563 68.6144 67.0938C71.4425 67.0469 71.979 65.3854 68.4217 60.4583C67.8332 59.5313 66.8592 58.2656 65.4425 56.651C64.7602 56.3125 64.1769 55.9688 63.6404 55.6771C52.6144 57.2865 81.5936 75.0469 73.104 76.7552C64.6144 73.2917 62.5675 75.3906 60.1248 80.5625C55.2498 75.3906 53.1509 75.6354 47.2498 71.3906C54.8592 71 56.2238 67.875 56.0311 62.849C55.7863 57.9688 53.9321 50.9948 55.104 47.0417C57.2498 47.4792 59.6873 48.3073 62.4217 49.625C71.3488 54.9948 78.5207 66.3125 86.5675 68.3646C85.9842 70.1719 85.6404 71.974 85.6404 73.8281C86.9113 68.901 91.3488 79.1458 96.0311 81.1979C94.3227 79.2448 92.5207 77.2917 90.5207 75.3438C92.229 74.2188 94.0832 75.2917 97.5936 79.5365C95.3488 76.5104 92.8592 73.4896 90.1769 70.4635C91.005 69.3906 93.6925 68.2656 96.229 73.5833C95.5467 71.4375 94.9113 69.6823 94.1769 68.1198C95.2029 69.6354 96.3748 70.6094 98.13 70.3646C96.6196 69.2917 96.0311 69.875 94.8592 67.1927C103.547 69.4375 93.2498 57.4844 99.3957 58.4115C97.8852 56.3594 99.0102 53.776 101.349 52.7031C102.62 59.776 106.177 63.8281 109.01 67.0469C110.083 68.6563 112.229 70.1198 114.375 71.6354C116.328 73.1458 118.031 74.7552 119.01 76.7083C118.958 76.5104 129.302 82.3177 129.302 82.3177C127.203 81.1458 129.547 77.3438 132.62 75.9271C135.448 73.8281 128.427 60.6042 138.281 64.8021L143.448 69.0469C142.521 68.5573 143.448 66.4115 143.984 65.3385L149.302 69.2448C157.693 56.2135 164.719 76.901 174.479 70.6094C171.646 71.6823 167.453 70.6094 169.307 66.3646C171.255 64.7552 174.036 66.3646 175.453 68.4635L175.015 66.901L193.307 75.8802C191.89 71.099 181.599 70.5625 186.281 65.2917C189.109 58.8958 194.281 65.776 197.599 66.3125C197.114 70.0208 190.963 73.2448 197.114 75.2917C197.89 73.4896 203.797 69.7292 201.062 67.0469C207.359 70.9479 216.479 73.3906 222.041 80.026C223.844 78.4635 221.068 76.8542 220.14 76.3646L219.651 77.3906C215.896 75.2917 219.213 67.875 211.698 71.5833C211.26 59.3854 222.531 68.3646 229.114 66.8021L218.771 58.3125C236.625 41.8698 260.14 60.3594 277.604 60.849C272.385 64.5573 268.193 60.901 268.63 70.4115C279.411 75.1979 277.995 73.0469 288.828 75.1458L287.901 74.6563C293.557 69.8281 301.073 79.3906 304.828 70.901C302.536 65.5833 296.828 75.6823 296.875 65.0938L310.484 66.1198C306.291 59.776 296.875 65.0938 291.703 63.4844C287.901 64.0208 299.219 65.0938 297.312 71.974C284.583 71.4375 281.802 64.5573 275.656 54.5052C271.995 47.0885 281.364 47.0885 283.755 47.0885C291.656 58.1667 303.411 63.4844 316.146 58.7031L323.172 50.75C329.318 58.1198 326.437 72.4635 337.755 70.8021L334.489 65C336.974 62.7552 338.635 62.0208 339.854 62.1198C335.026 57.6771 329.901 52.651 325.562 48.0677C332.193 35.8646 343.953 54.4115 353.318 56.9948C352.88 55.4323 349.562 54.8958 348.635 51.724C362.781 49.0417 377.318 63.875 388.151 65.974C392.833 60.6563 379.172 62.2656 381.515 54.3594C387.224 57.4844 393.76 50.6042 395.224 58.0208C392.88 47.4323 408.349 57.4323 397.568 47.4323C418.25 43.1354 440.786 53.1875 461.568 59.4844C460.594 56.3125 460.64 53.6771 461.568 51.5313C454.495 51.5781 444.156 48.4063 440.396 40.9896C445.083 35.6719 451.229 48.3594 452.594 45.1875C450.302 42.5521 445.568 42.5521 445.568 37.2813C451.713 31.4271 454.984 39.8698 459.177 40.9427L456.838 43.625C469.958 50.9948 463.864 62.1198 478.01 59.4323C483.182 53.0938 478.01 54.1667 478.057 46.2135C481.328 49.3854 492.156 40.8906 495.427 49.3854L486.937 49.9219C492.838 52.2604 498.5 52.3125 502.599 55.1406C502.208 53.3854 501.864 51.6302 500.599 50.9427C505.328 53.5781 511.38 53.0417 513.719 58.3594L515.182 49.8698C512.307 53.5781 503.864 54.1146 502.5 49.3854C503.427 41.9167 511.916 46.6979 515.672 46.1615C499.182 43.526 499.182 30.3021 485.13 35.625L487.474 38.2604C478.646 44.5521 469.864 33.8177 462.255 33.9635C464.448 32.2552 464.885 29.1354 463.958 27.7188C446.984 34.0625 430.495 28.7917 411.224 32.5469L405.614 24.0573L405.125 30.4531C395.713 33.1354 403.224 21.4219 397.177 21.9583C399.469 21.9583 399.078 23.0365 399.469 24.6458C388.687 17.2292 393.323 30.4531 387.271 28.3542C390.052 35.2344 399.031 30.9896 396.151 40.0156C385.37 32.599 368.39 36.3542 367.078 20.9375C346.781 26.8385 321.901 16.8385 304.927 15.2292C302.583 17.9115 306.338 17.375 305.411 19.474C298.828 10.4948 282.828 25.375 282.828 17.4219C279.51 19.5208 278.094 25.375 277.166 27.474C272.922 23.6198 267.802 21.6667 262.338 20.4948L266.286 22.7396L265.849 23.8125L260.239 20.5938C246.87 17.6667 231.068 19.3281 218.87 10.6406C225.896 15.9115 216.916 20.1563 220.234 23.3281C214.135 10.6406 199.062 10.1042 186.87 11.224C186.87 13.8594 185.89 15.9583 187.307 18.1042L180.281 12.7865L181.161 16.0052C168.474 18.1563 154.864 3.85938 146.427 9.71354C151.547 11.276 151.547 13.9115 151.989 18.1563C142.911 17.7135 134.328 17.4219 123.791 13.4688C124.375 14.25 124.719 15.1302 124.719 16.1042C121.885 17.1302 118.62 13.9583 115.791 12.3958L115.302 18.7396C113.838 18.0104 112.812 17.6198 110.713 17.4219C108.328 17.276 105.937 17.1302 103.448 16.9844C98.4217 16.7396 93.3019 16.2031 87.4946 13.5677C86.3748 17.0313 80.13 15.3229 71.9321 13.0781C63.8332 10.8333 53.5884 8.05208 48.2707 9.42188C42.8071 7.8125 62.9061 16.9323 50.2238 16.3958C44.5154 9.42187 40.0779 9.27604 35.6873 8.97917C31.2967 8.6875 26.9529 8.25 19.6352 0.734375C17.4425 2.25 15.3904 3.76042 13.4894 5.27083L14.3175 7.8125L6.85398 3.27083C13.9269 15.375 12.4165 17.4219 9.68211 19.9583C6.95294 22.3021 3.0519 25.2292 5.39044 35.0365C6.95294 35.2344 7.4894 33.8177 8.56232 35.3802C7.0519 39.4271 6.21857 51.4323 2.31752 39.5729C2.46336 48.6042 -0.656434 78.5156 7.0519 67.2917C2.85398 66.8021 6.31752 55.5313 7.78107 51.2396C14.2238 55.0938 11.8331 66.5104 18.7602 71.7813C18.0727 71.9271 16.9998 73.099 15.979 73.9271L19.9269 76.7552C16.4634 83.0052 16.0727 90.6615 15.3904 97.6875L14.8071 102.911C14.5623 104.375 14.2238 105.01 13.7811 106.083C12.9061 107.984 11.5363 109.74 9.29669 111.401C11.2446 111.745 12.8071 113.255 12.3696 116.328L4.41648 116.526L4.70815 125.943L16.2238 121.406C18.6144 131.698 5.58836 139.115 3.68211 147.604C16.9998 149.656 -1.14602 164.245 10.7081 171.469L14.2706 164.781C11.979 178.979 20.0259 181.13 15.5884 194.401C11.0519 183.229 13.6821 183.13 2.66127 166.927C8.36961 183.276 -4.56268 195.328 3.34357 210.26C6.46336 209.234 8.46336 205.427 11.7342 209.089C4.95294 212.063 12.1717 223.188 4.12482 221.042C6.90607 225.677 14.3696 226.411 15.4894 229.24L5.82794 245L7.44252 244.51C26.1717 270.911 -4.46373 294.234 3.68211 320.828L7.9269 320.292L1.73419 327.026C5.82794 321.755 7.09877 329.219 10.8071 329.609L1.78107 346.786C5.4894 347.125 13.9269 346.052 12.2186 341.859Z" fill="#F9A319"/>
</g>
<path d="M80.5205 415.49C81.2028 417.245 81.1038 418.37 80.7132 419.297C80.4215 418.125 80.2757 416.854 80.5205 415.49Z" fill="#F9A319"/>
<path d="M82.6667 95.1511C81.25 94.6667 80.4687 94.1771 79.9844 93.5886C80.8594 93.8854 81.7396 94.3698 82.6667 95.1511Z" fill="#F9A319"/>
<path d="M501.964 66.3125C504.792 73.1927 499.136 67.3906 496.792 67.3906C499.136 67.3906 500.11 62.6042 501.964 66.3125Z" fill="#F9A319"/>
<path d="M483.62 54.7031C485.037 56.7031 486.985 58.1198 489.375 58.75C487.865 58.9479 486.209 58.2135 483.62 54.7031Z" fill="#F9A319"/>
<path d="M498.693 57.8229C495.083 59.1927 491.911 59.4323 489.375 58.75C491.766 58.4583 493.818 55.9219 498.693 57.8229Z" fill="#F9A319"/>
<path d="M433.766 55.8229C436.641 60.0677 442.25 57.9219 442.25 57.9219C430.005 61.6771 444.547 65.875 445.521 69.0469C437.958 67.4844 438.005 62.1667 433.766 55.8229Z" fill="#F9A319"/>
<path d="M417.667 53.4323C418.933 53.4323 420.104 53.2865 421.078 52.6511C419.86 53.724 418.74 53.7761 417.667 53.4323Z" fill="#F9A319"/>
<path d="M413.078 57.4323C408.833 56.4115 407.422 51.6302 405.567 47.9219C410.739 44.599 413.859 52.2136 417.666 53.4323C414.687 53.4844 411.76 52.9427 413.078 57.4323Z" fill="#F9A319"/>
<path d="M282.677 78.3646C283.656 78.9063 285.995 78.9063 285.995 81.5365H278.974C276.141 79.9271 281.266 78.9063 282.677 78.3646Z" fill="#F9A319"/>
<path d="M256.823 65.1459C251.214 64.6563 254.042 71.5365 251.214 69.9271L251.651 60.9011L256.823 65.1459Z" fill="#F9A319"/>
<path d="M260.677 19.5677L262.339 20.4948C261.703 20.349 261.115 20.2552 260.433 20.1042L260.677 19.5677Z" fill="#F9A319"/>
<path d="M229.505 73.6823L233.261 83.7344C228.578 81.099 228.625 73.1459 229.505 73.6823Z" fill="#F9A319"/>
<path d="M207.896 80.0729L211.162 83.2448L200.87 80.0729H207.896Z" fill="#F9A319"/>
<path d="M182.036 74.8073L181.062 76.9532L174.036 74.3177L182.036 74.8073Z" fill="#F9A319"/>
<path d="M74.0316 200.063C65.5889 201.182 69.0055 189.865 66.7607 186.594C77.4482 188.74 63.3493 195.62 74.0316 200.063Z" fill="#F9A319"/>
<path d="M76.5205 405.682L78.3695 394.849C81.7861 403.193 78.4215 397.193 76.5205 405.682Z" fill="#F9A319"/>
</svg>
